<svg width="124" height="56" viewBox="0 0 124 56" fill="none" xmlns="http://www.w3.org/2000/svg">
<rect width="123.586" height="56" fill="#757575"/>
<path d="M29.2988 34.4697H38.6299V38H24.9043V16.6719H29.2988V34.4697ZM57.7461 27.8193C57.7461 29.9189 57.375 31.7598 56.6328 33.3418C55.8906 34.9238 54.8262 36.1445 53.4395 37.0039C52.0625 37.8633 50.4805 38.293 48.6934 38.293C46.9258 38.293 45.3486 37.8682 43.9619 37.0186C42.5752 36.1689 41.501 34.958 40.7393 33.3857C39.9775 31.8037 39.5918 29.9873 39.582 27.9365V26.8818C39.582 24.7822 39.958 22.9365 40.71 21.3447C41.4717 19.7432 42.541 18.5176 43.918 17.668C45.3047 16.8086 46.8867 16.3789 48.6641 16.3789C50.4414 16.3789 52.0186 16.8086 53.3955 17.668C54.7822 18.5176 55.8516 19.7432 56.6035 21.3447C57.3652 22.9365 57.7461 24.7773 57.7461 26.8672V27.8193ZM53.293 26.8525C53.293 24.6162 52.8926 22.917 52.0918 21.7549C51.291 20.5928 50.1484 20.0117 48.6641 20.0117C47.1895 20.0117 46.0518 20.5879 45.251 21.7402C44.4502 22.8828 44.0449 24.5625 44.0352 26.7793V27.8193C44.0352 29.9971 44.4355 31.6865 45.2363 32.8877C46.0371 34.0889 47.1895 34.6895 48.6934 34.6895C50.168 34.6895 51.3008 34.1133 52.0918 32.9609C52.8828 31.7988 53.2832 30.1094 53.293 27.8926V26.8525ZM77.8145 35.3047C77.0234 36.252 75.9053 36.9893 74.46 37.5166C73.0146 38.0342 71.4131 38.293 69.6553 38.293C67.8096 38.293 66.1885 37.8926 64.792 37.0918C63.4053 36.2812 62.3311 35.1094 61.5693 33.5762C60.8174 32.043 60.4316 30.2412 60.4121 28.1709V26.7207C60.4121 24.5918 60.7686 22.751 61.4814 21.1982C62.2041 19.6357 63.2393 18.4443 64.5869 17.624C65.9443 16.7939 67.5312 16.3789 69.3477 16.3789C71.877 16.3789 73.8545 16.9844 75.2803 18.1953C76.7061 19.3965 77.5508 21.1494 77.8145 23.4541H73.5371C73.3418 22.2334 72.9072 21.3398 72.2334 20.7734C71.5693 20.207 70.6514 19.9238 69.4795 19.9238C67.9854 19.9238 66.8477 20.4854 66.0664 21.6084C65.2852 22.7314 64.8896 24.4014 64.8799 26.6182V27.9805C64.8799 30.2168 65.3047 31.9062 66.1543 33.0488C67.0039 34.1914 68.249 34.7627 69.8896 34.7627C71.54 34.7627 72.7168 34.4111 73.4199 33.708V30.0312H69.4209V26.7939H77.8145V35.3047ZM98.9082 27.8193C98.9082 29.9189 98.5371 31.7598 97.7949 33.3418C97.0527 34.9238 95.9883 36.1445 94.6016 37.0039C93.2246 37.8633 91.6426 38.293 89.8555 38.293C88.0879 38.293 86.5107 37.8682 85.124 37.0186C83.7373 36.1689 82.6631 34.958 81.9014 33.3857C81.1396 31.8037 80.7539 29.9873 80.7441 27.9365V26.8818C80.7441 24.7822 81.1201 22.9365 81.8721 21.3447C82.6338 19.7432 83.7031 18.5176 85.0801 17.668C86.4668 16.8086 88.0488 16.3789 89.8262 16.3789C91.6035 16.3789 93.1807 16.8086 94.5576 17.668C95.9443 18.5176 97.0137 19.7432 97.7656 21.3447C98.5273 22.9365 98.9082 24.7773 98.9082 26.8672V27.8193ZM94.4551 26.8525C94.4551 24.6162 94.0547 22.917 93.2539 21.7549C92.4531 20.5928 91.3105 20.0117 89.8262 20.0117C88.3516 20.0117 87.2139 20.5879 86.4131 21.7402C85.6123 22.8828 85.207 24.5625 85.1973 26.7793V27.8193C85.1973 29.9971 85.5977 31.6865 86.3984 32.8877C87.1992 34.0889 88.3516 34.6895 89.8555 34.6895C91.3301 34.6895 92.4629 34.1133 93.2539 32.9609C94.0449 31.7988 94.4453 30.1094 94.4551 27.8926V26.8525Z" fill="black"/>
</svg>
