<svg width="32" height="19" viewBox="0 0 32 19" fill="none" xmlns="http://www.w3.org/2000/svg">
<path d="M31.2663 1.28667C31.4899 0.544363 31.2663 0 30.2091 0L26.7071 0C25.816 0 25.4088 0.47093 25.1852 0.988154C25.1852 0.988154 23.4046 5.32868 20.8815 8.14308C20.067 8.96202 19.6949 9.22064 19.251 9.22064C19.029 9.22064 18.7064 8.96202 18.7064 8.21971V1.28667C18.7064 0.3959 18.4493 0 17.7068 0L12.2037 0C11.648 0 11.3127 0.411864 11.3127 0.804571C11.3127 1.64745 12.5742 1.84221 12.7036 4.21761L12.7036 9.37069C12.7036 10.4993 12.5008 10.7053 12.0536 10.7053C10.8671 10.7053 7.97986 6.34877 6.26635 1.3617C5.9326 0.392707 5.59564 0.00159702 4.70136 0.00159702L1.20089 0.00159702C0.199616 0.00159702 0 0.472526 0 0.98975C0 1.91884 1.18652 6.51638 5.52698 12.597C8.42061 16.7491 12.4944 19 16.2056 19C18.4302 19 18.7048 18.5003 18.7048 17.6383V14.4998C18.7048 13.5005 18.9172 13.2994 19.6215 13.2994C20.1389 13.2994 21.03 13.5612 23.1076 15.5614C25.4806 17.9336 25.8735 18.9984 27.2069 18.9984H30.7074C31.7071 18.9984 32.2069 18.4987 31.9194 17.5122C31.6049 16.5304 30.471 15.1017 28.9667 13.4111C28.1491 12.4469 26.9274 11.4093 26.5554 10.8904C26.0364 10.2216 26.1865 9.92623 26.5554 9.33238C26.557 9.33398 30.8224 3.32843 31.2663 1.28667V1.28667Z" fill="white"/>
</svg>
