<svg width="18" height="30" viewBox="0 0 18 30" fill="none" xmlns="http://www.w3.org/2000/svg">
<path d="M12.2836 21.8029C13.9403 21.4379 15.5216 20.8075 16.9612 19.9381C17.4687 19.6085 17.8231 19.1018 17.9493 18.5252C18.0756 17.9487 17.9638 17.3475 17.6376 16.8488C17.3114 16.3502 16.7964 15.9932 16.2016 15.8534C15.6068 15.7136 14.9788 15.8019 14.4504 16.0998C12.8249 17.0763 10.9471 17.594 9.03087 17.594C7.1146 17.594 5.23682 17.0763 3.6113 16.0998C3.08359 15.7796 2.44553 15.6737 1.83688 15.8054C1.22822 15.937 0.698576 16.2954 0.363944 16.802V16.8067C0.198617 17.0583 0.0865113 17.3388 0.0340526 17.6321C-0.0184061 17.9255 -0.0101866 18.2259 0.0582398 18.5162C0.126666 18.8065 0.253954 19.081 0.432809 19.3238C0.611663 19.5667 0.838568 19.7732 1.10052 19.9316L1.10441 19.9362C2.54035 20.8058 4.11896 21.4351 5.77328 21.7973L1.272 26.1279C0.831259 26.5441 0.580061 27.1116 0.573486 27.7058C0.566911 28.3001 0.805496 28.8726 1.23692 29.2978L1.27687 29.3362C1.72407 29.7797 2.32814 30 2.93221 30C3.53628 30 4.13937 29.7797 4.5856 29.3362L9.03135 25.0825L13.4508 29.3418C14.39 30.2053 15.8817 30.1856 16.7858 29.2828C17.2102 28.8601 17.4473 28.2954 17.4473 27.7077C17.4473 27.12 17.2102 26.5552 16.7858 26.1326L12.2836 21.8029ZM9.03038 15.4847C11.1637 15.4835 13.2093 14.6677 14.7182 13.2164C16.2271 11.7652 17.0758 9.7971 17.0781 7.74423C17.0781 3.47647 13.4654 0 9.03038 0C4.59535 0 0.982627 3.47647 0.982627 7.74423C0.984947 9.79753 1.83355 11.7661 3.34226 13.2181C4.85098 14.6701 6.89661 15.4869 9.03038 15.4894V15.4847ZM9.03038 4.54153C9.91292 4.54203 10.7592 4.87962 11.3832 5.48013C12.0073 6.08065 12.3581 6.89498 12.3586 7.74423C12.3583 8.59417 12.0078 9.40932 11.3839 10.0109C10.76 10.6125 9.91363 10.9515 9.03038 10.9535C8.14676 10.9513 7.30003 10.6124 6.6754 10.0109C6.05077 9.40953 5.69909 8.59453 5.69729 7.74423C5.70037 6.89449 6.05252 6.0804 6.67693 5.47954C7.30134 4.87868 8.14734 4.53981 9.03038 4.53685V4.54153Z" fill="white"/>
</svg>
